<svg width="" height="" viewBox="0 0 51 27" fill="none" xmlns="http://www.w3.org/2000/svg">
<path d="M45.5821 0.25C44.8419 0.250239 44.112 0.423036 43.4503 0.754672C42.7885 1.08631 42.2132 1.56765 41.77 2.16048C41.3268 2.75331 41.0278 3.44131 40.897 4.16985C40.7661 4.89838 40.8069 5.6474 41.0161 6.35742L33.6282 13.7443C32.6538 13.4197 31.6005 13.4197 30.6262 13.7443L25.1492 8.26729C25.3294 7.56402 25.3465 6.82885 25.199 6.11798C25.0515 5.40712 24.7435 4.73939 24.2984 4.16584C23.8533 3.59229 23.2829 3.12811 22.6309 2.80879C21.9789 2.48947 21.2625 2.32346 20.5365 2.32346C19.8105 2.32346 19.0942 2.48947 18.4422 2.80879C17.7902 3.12811 17.2198 3.59229 16.7747 4.16584C16.3296 4.73939 16.0216 5.40712 15.8741 6.11798C15.7266 6.82885 15.7437 7.56402 15.9239 8.26729L6.76379 17.4212C5.74682 17.1201 4.65852 17.1666 3.67092 17.5533C2.68333 17.9399 1.85276 18.6447 1.3105 19.5562C0.768237 20.4677 0.545218 21.5339 0.676691 22.5863C0.808163 23.6387 1.28663 24.6173 2.03646 25.3674C2.78629 26.1174 3.76471 26.5962 4.81708 26.728C5.86945 26.8598 6.93573 26.6372 7.84739 26.0952C8.75905 25.5532 9.46409 24.7229 9.85106 23.7354C10.238 22.7479 10.2849 21.6596 9.98416 20.6426L19.0283 11.5995C20.0026 11.9242 21.056 11.9242 22.0303 11.5995L27.5083 17.0775C27.3281 17.7808 27.3111 18.5159 27.4585 19.2268C27.606 19.9377 27.914 20.6054 28.3591 21.1789C28.8042 21.7525 29.3746 22.2167 30.0266 22.536C30.6786 22.8553 31.395 23.0213 32.121 23.0213C32.847 23.0213 33.5634 22.8553 34.2154 22.536C34.8674 22.2167 35.4377 21.7525 35.8828 21.1789C36.3279 20.6054 36.636 19.9377 36.7834 19.2268C36.9309 18.5159 36.9139 17.7808 36.7336 17.0775L44.2364 9.57883C44.8914 9.77207 45.5804 9.82216 46.2564 9.7257C46.9325 9.62924 47.5799 9.38849 48.1547 9.01978C48.7295 8.65107 49.2183 8.16303 49.5879 7.58878C49.9575 7.01452 50.1993 6.36749 50.2968 5.69157C50.3943 5.01565 50.3453 4.32667 50.153 3.67137C49.9608 3.01607 49.6299 2.40979 49.1827 1.89365C48.7355 1.37752 48.1825 0.963608 47.5613 0.68001C46.94 0.396411 46.2651 0.249758 45.5821 0.25Z" fill="#7BC144"/>
</svg>
