<svg width="" height="" viewBox="0 0 45 42" fill="none" xmlns="http://www.w3.org/2000/svg">
<path d="M39.75 15.4583V13.25L26.5 0H4.41667C1.96542 0 0 1.96542 0 4.41667V35.3333C0 36.5047 0.465326 37.6281 1.29361 38.4564C2.1219 39.2847 3.24529 39.75 4.41667 39.75H17.6667V35.6204L36.1946 17.0925C37.1662 16.1208 38.4029 15.5908 39.75 15.4583ZM24.2917 3.3125L36.4375 15.4583H24.2917V3.3125ZM43.8354 24.7113L41.6712 26.8754L37.1662 22.3704L39.3304 20.2063C39.75 19.7646 40.4787 19.7646 40.9204 20.2063L43.8354 23.1213C44.2771 23.5629 44.2771 24.2917 43.8354 24.7113ZM35.6204 23.9163L40.1254 28.4213L26.5883 41.9583H22.0833V37.4533L35.6204 23.9163Z" fill="#7BC144"/>
</svg>
