<svg width="" height="" viewBox="0 0 41 45" fill="none" xmlns="http://www.w3.org/2000/svg">
<path d="M40.375 40.1667V9.24999C40.375 6.8142 38.3941 4.83332 35.9583 4.83332H31.5417V0.416656H27.125V4.83332H13.875V0.416656H9.45833V4.83332H5.04167C2.60587 4.83332 0.625 6.8142 0.625 9.24999V40.1667C0.625 42.6025 2.60587 44.5833 5.04167 44.5833H35.9583C38.3941 44.5833 40.375 42.6025 40.375 40.1667ZM13.875 35.75H9.45833V31.3333H13.875V35.75ZM13.875 26.9167H9.45833V22.5H13.875V26.9167ZM22.7083 35.75H18.2917V31.3333H22.7083V35.75ZM22.7083 26.9167H18.2917V22.5H22.7083V26.9167ZM31.5417 35.75H27.125V31.3333H31.5417V35.75ZM31.5417 26.9167H27.125V22.5H31.5417V26.9167ZM35.9583 15.875H5.04167V11.4583H35.9583V15.875Z" fill="#7BC144"/>
</svg>
