<svg width="" height="" viewBox="0 0 47 37" fill="none" xmlns="http://www.w3.org/2000/svg">
<path d="M45.0312 0.28125H1.96875C1.05264 0.28125 0.3125 1.02139 0.3125 1.9375V35.0625C0.3125 35.9786 1.05264 36.7188 1.96875 36.7188H45.0312C45.9474 36.7188 46.6875 35.9786 46.6875 35.0625V1.9375C46.6875 1.02139 45.9474 0.28125 45.0312 0.28125ZM40.8492 5.91768L24.5196 18.6242C24.1159 18.9399 23.5518 18.9399 23.148 18.6242L6.81328 5.91768C6.7517 5.87015 6.70654 5.80456 6.68412 5.73008C6.6617 5.6556 6.66314 5.57597 6.68825 5.50235C6.71336 5.42874 6.76088 5.36482 6.82414 5.31957C6.8874 5.27431 6.96323 5.24999 7.04102 5.25H40.6215C40.6993 5.24999 40.7751 5.27431 40.8384 5.31957C40.9016 5.36482 40.9491 5.42874 40.9742 5.50235C40.9994 5.57597 41.0008 5.6556 40.9784 5.73008C40.956 5.80456 40.9108 5.87015 40.8492 5.91768Z" fill="#7BC144"/>
</svg>
