<svg width="" height="" viewBox="0 0 47 47" fill="none" xmlns="http://www.w3.org/2000/svg">
<path d="M0.3125 33.4375C0.3125 32.559 0.661494 31.7164 1.28271 31.0952C1.90392 30.474 2.74647 30.125 3.625 30.125H10.25C11.1285 30.125 11.9711 30.474 12.5923 31.0952C13.2135 31.7164 13.5625 32.559 13.5625 33.4375V43.375C13.5625 44.2535 13.2135 45.0961 12.5923 45.7173C11.9711 46.3385 11.1285 46.6875 10.25 46.6875H3.625C2.74647 46.6875 1.90392 46.3385 1.28271 45.7173C0.661494 45.0961 0.3125 44.2535 0.3125 43.375V33.4375ZM16.875 20.1875C16.875 19.309 17.224 18.4664 17.8452 17.8452C18.4664 17.224 19.309 16.875 20.1875 16.875H26.8125C27.691 16.875 28.5336 17.224 29.1548 17.8452C29.776 18.4664 30.125 19.309 30.125 20.1875V43.375C30.125 44.2535 29.776 45.0961 29.1548 45.7173C28.5336 46.3385 27.691 46.6875 26.8125 46.6875H20.1875C19.309 46.6875 18.4664 46.3385 17.8452 45.7173C17.224 45.0961 16.875 44.2535 16.875 43.375V20.1875ZM33.4375 3.625C33.4375 2.74647 33.7865 1.90392 34.4077 1.28271C35.0289 0.661494 35.8715 0.3125 36.75 0.3125H43.375C44.2535 0.3125 45.0961 0.661494 45.7173 1.28271C46.3385 1.90392 46.6875 2.74647 46.6875 3.625V43.375C46.6875 44.2535 46.3385 45.0961 45.7173 45.7173C45.0961 46.3385 44.2535 46.6875 43.375 46.6875H36.75C35.8715 46.6875 35.0289 46.3385 34.4077 45.7173C33.7865 45.0961 33.4375 44.2535 33.4375 43.375V3.625Z" fill="#7BC144"/>
</svg>
