<svg width="" height="" viewBox="0 0 41 38" fill="none" xmlns="http://www.w3.org/2000/svg">
<path d="M11.6667 15.7617H10.3859C8.638 15.6986 6.89578 15.9953 5.26734 16.6335C3.63891 17.2717 2.15901 18.2378 0.919495 19.4717L0.566162 19.884V32.074H6.57283V25.1545L7.38255 24.2417L7.75061 23.8148C9.66733 21.8457 12.0536 20.3967 14.6848 19.6042C13.3674 18.6019 12.3285 17.2791 11.6667 15.7617Z" fill="#7BC144"/>
<path d="M40.1396 19.4276C38.9001 18.1936 37.4202 17.2275 35.7917 16.5893C34.1633 15.9511 32.4211 15.6544 30.6732 15.7176C30.1371 15.7191 29.6015 15.7486 29.0685 15.8059C28.3943 17.2294 27.3837 18.4674 26.124 19.4128C28.933 20.1899 31.4776 21.7167 33.4851 23.8295L33.8532 24.2417L34.6482 25.1545V32.0887H40.4487V19.8398L40.1396 19.4276Z" fill="#7BC144"/>
<path d="M10.3418 12.8909H10.7982C10.5861 11.0701 10.9056 9.22685 11.7181 7.58364C12.5305 5.94044 13.8012 4.56751 15.3768 3.63059C14.8057 2.75808 14.0177 2.04885 13.0902 1.57235C12.1626 1.09585 11.1271 0.868416 10.0853 0.912323C9.04336 0.956229 8.03073 1.26997 7.14652 1.82282C6.26232 2.37567 5.53684 3.14868 5.04115 4.06615C4.54545 4.98362 4.29653 6.0141 4.31875 7.05668C4.34097 8.09926 4.63358 9.1182 5.16791 10.0137C5.70225 10.9092 6.45999 11.6506 7.36695 12.1653C8.27391 12.68 9.29899 12.9503 10.3418 12.9498V12.8909Z" fill="#7BC144"/>
<path d="M29.9664 11.7866C29.9843 12.125 29.9843 12.464 29.9664 12.8024C30.2489 12.8472 30.5343 12.8718 30.8203 12.876H31.1C32.1383 12.8207 33.1445 12.4974 34.0207 11.9378C34.8969 11.3781 35.6133 10.6011 36.1001 9.68237C36.5869 8.76365 36.8275 7.73455 36.7985 6.69525C36.7695 5.65595 36.4719 4.64186 35.9346 3.75172C35.3973 2.86158 34.6388 2.12572 33.7327 1.61578C32.8266 1.10584 31.804 0.8392 30.7643 0.841816C29.7246 0.844431 28.7033 1.11622 27.7998 1.63071C26.8963 2.1452 26.1414 2.88487 25.6086 3.7777C26.9411 4.64769 28.0368 5.83484 28.7974 7.23267C29.558 8.63049 29.9597 10.1953 29.9664 11.7866Z" fill="#7BC144"/>
<path d="M20.3086 18.3824C23.9431 18.3824 26.8895 15.436 26.8895 11.8015C26.8895 8.16704 23.9431 5.2207 20.3086 5.2207C16.6741 5.2207 13.7278 8.16704 13.7278 11.8015C13.7278 15.436 16.6741 18.3824 20.3086 18.3824Z" fill="#7BC144"/>
<path d="M20.6617 21.8862C18.7391 21.8086 16.8206 22.1208 15.0217 22.8039C13.2228 23.487 11.5807 24.527 10.1942 25.8612L9.82617 26.2735V35.5926C9.83192 35.8962 9.89741 36.1956 10.0189 36.4739C10.1404 36.7521 10.3155 37.0037 10.5343 37.2142C10.753 37.4248 11.0111 37.5901 11.2938 37.7009C11.5764 37.8117 11.8782 37.8657 12.1817 37.8599H29.0976C29.4011 37.8657 29.7028 37.8117 29.9855 37.7009C30.2682 37.5901 30.5263 37.4248 30.745 37.2142C30.9638 37.0037 31.1389 36.7521 31.2604 36.4739C31.3819 36.1956 31.4474 35.8962 31.4531 35.5926V26.3029L31.0998 25.8612C29.7223 24.5229 28.0859 23.48 26.291 22.7964C24.4961 22.1129 22.5806 21.8032 20.6617 21.8862Z" fill="#7BC144"/>
</svg>
