<svg width="" height="" viewBox="0 0 53 49" fill="none" xmlns="http://www.w3.org/2000/svg">
<g clip-path="url(#clip0_4_2796)">
<path d="M48.1749 9.39519C47.9764 9.18743 47.7333 9.01946 47.4608 8.90178C47.1883 8.7841 46.8922 8.71925 46.591 8.71128C41.9128 8.59917 35.9931 4.01365 32.0792 2.2142C29.6616 1.10612 28.0655 0.375504 26.8669 0.183039C26.6235 0.150531 26.3762 0.15116 26.133 0.184908C24.9344 0.377373 23.3383 1.10799 20.9227 2.21606C17.0089 4.01365 11.0892 8.59917 6.4109 8.71128C6.10956 8.71966 5.8133 8.78469 5.5405 8.90233C5.26769 9.01997 5.02415 9.18773 4.82498 9.39519C4.41213 9.82334 4.19913 10.3829 4.23179 10.9536C5.23675 29.6825 12.565 41.2733 25.4236 48.0096C25.7579 48.1834 26.1289 48.2731 26.4979 48.2731C26.8669 48.2731 27.2379 48.1834 27.5742 48.0096C40.4328 41.2733 47.7591 29.6825 48.7661 10.9536C48.8006 10.383 48.5882 9.82301 48.1749 9.39519ZM37.95 16.7612L27.0992 31.4389C26.7099 31.9659 26.0984 32.3153 25.4929 32.3153C24.8855 32.3153 24.2107 32.0107 23.7847 31.6202L16.1364 24.6074C15.8867 24.3776 15.7465 24.0665 15.7465 23.7422C15.7465 23.4179 15.8867 23.1068 16.1364 22.8771L18.0261 21.1411C18.2772 20.9132 18.6164 20.7853 18.9699 20.7853C19.3233 20.7853 19.6625 20.9132 19.9137 21.1411L24.8875 25.7005L33.5286 14.0087C33.7285 13.7412 34.0358 13.557 34.3833 13.4965C34.7309 13.4359 35.0905 13.5038 35.3836 13.6855L37.5953 15.0608C37.8875 15.2437 38.0888 15.5253 38.1553 15.8439C38.2217 16.1625 38.1479 16.4923 37.95 16.7612Z" fill="#7BC145"/>
</g>
<defs>
<clipPath id="clip0_4_2796">
<rect width="53" height="48.5833" fill="white"/>
</clipPath>
</defs>
</svg>
