<svg width="" height="" viewBox="0 0 46 46" fill="none" xmlns="http://www.w3.org/2000/svg">
<g clip-path="url(#clip0_4_2748)">
<path d="M45.0191 35.5512L34.4984 25.0305C32.423 22.9551 29.3234 22.5508 26.8257 23.7816L17.2484 14.2043V8.625L5.74839 0L-0.0016114 5.75L8.62339 17.25H14.2027L23.78 26.8273C22.5582 29.325 22.9535 32.4246 25.0289 34.5L35.5496 45.0207C36.8613 46.3324 38.9816 46.3324 40.2843 45.0207L45.0191 40.2859C46.3218 38.9742 46.3218 36.8539 45.0191 35.5512ZM29.7996 20.2148C32.3421 20.2148 34.732 21.2031 36.5289 23L38.2718 24.743C39.6914 24.123 41.039 23.2605 42.207 22.0926C45.5402 18.7594 46.6722 14.0695 45.6121 9.81094C45.4144 9.00234 44.3992 8.72383 43.8062 9.3168L37.1218 16.0012L31.0214 14.9859L30.0062 8.88555L36.6906 2.20117C37.2835 1.6082 36.996 0.592969 36.1785 0.386328C31.9199 -0.664844 27.23 0.467188 23.9058 3.79141C21.3453 6.35195 20.1414 9.73008 20.2042 13.0992L27.5804 20.4754C28.3082 20.3047 29.0628 20.2148 29.7996 20.2148ZM20.4648 27.582L15.3707 22.4879L1.67847 36.1891C-0.567627 38.4352 -0.567627 42.0738 1.67847 44.3199C3.92456 46.566 7.56323 46.566 9.80933 44.3199L20.914 33.2152C20.2312 31.4273 20.0246 29.4777 20.4648 27.582ZM5.74839 42.4062C4.56245 42.4062 3.59214 41.4359 3.59214 40.25C3.59214 39.0551 4.55347 38.0938 5.74839 38.0938C6.94331 38.0938 7.90464 39.0551 7.90464 40.25C7.90464 41.4359 6.94331 42.4062 5.74839 42.4062Z" fill="#7BC144"/>
</g>
<defs>
<clipPath id="clip0_4_2748">
<rect width="46" height="46" fill="white"/>
</clipPath>
</defs>
</svg>
