<svg width="" height="" viewBox="0 0 53 43" fill="none" xmlns="http://www.w3.org/2000/svg">
<g clip-path="url(#clip0_4_2737)">
<path d="M50.557 30.9139C50.7723 29.7463 50.7723 28.5538 50.557 27.3861L52.6936 26.1522C52.942 26.0114 53.0497 25.7216 52.9669 25.4483C52.412 23.6595 51.4597 22.0364 50.2175 20.6948C50.027 20.4878 49.7206 20.4381 49.4722 20.5789L47.3356 21.8128C46.433 21.0427 45.3978 20.4464 44.2798 20.0489V17.5811C44.2798 17.2995 44.0811 17.0511 43.8078 16.9931C41.9611 16.5791 40.0812 16.5956 38.3256 16.9931C38.0523 17.0511 37.8536 17.2995 37.8536 17.5811V20.0489C36.7356 20.4464 35.7005 21.0427 34.7978 21.8128L32.6612 20.5789C32.4211 20.4381 32.1064 20.4878 31.9159 20.6948C30.6737 22.0364 29.7214 23.6595 29.1666 25.4483C29.0837 25.7216 29.1997 26.0114 29.4398 26.1522L31.5764 27.3861C31.3611 28.5538 31.3611 29.7463 31.5764 30.9139L29.4398 32.1478C29.1914 32.2886 29.0837 32.5784 29.1666 32.8517C29.7214 34.6405 30.6737 36.2553 31.9159 37.6052C32.1064 37.8122 32.4128 37.8619 32.6612 37.7211L34.7978 36.4872C35.7005 37.2573 36.7356 37.8536 37.8536 38.2511V40.7189C37.8536 41.0005 38.0523 41.2489 38.3256 41.3069C40.1723 41.7209 42.0522 41.7044 43.8078 41.3069C44.0811 41.2489 44.2798 41.0005 44.2798 40.7189V38.2511C45.3978 37.8536 46.433 37.2573 47.3356 36.4872L49.4722 37.7211C49.7123 37.8619 50.027 37.8122 50.2175 37.6052C51.4597 36.2636 52.412 34.6405 52.9669 32.8517C53.0497 32.5784 52.9337 32.2886 52.6936 32.1478L50.557 30.9139ZM41.075 33.1664C38.8556 33.1664 37.0586 31.3611 37.0586 29.15C37.0586 26.9389 38.8639 25.1336 41.075 25.1336C43.2861 25.1336 45.0914 26.9389 45.0914 29.15C45.0914 31.3611 43.2944 33.1664 41.075 33.1664ZM18.55 21.2C24.4048 21.2 29.15 16.4548 29.15 10.6C29.15 4.74516 24.4048 0 18.55 0C12.6952 0 7.95 4.74516 7.95 10.6C7.95 16.4548 12.6952 21.2 18.55 21.2ZM35.2119 39.957C35.0214 39.8577 34.8309 39.7417 34.6487 39.6341L33.9945 40.015C33.4977 40.2966 32.9345 40.4539 32.3714 40.4539C31.4687 40.4539 30.5992 40.073 29.9781 39.4105C28.4627 37.7708 27.3033 35.775 26.6491 33.6467C26.1936 32.1809 26.8064 30.6323 28.1314 29.8622L28.7856 29.4813C28.7773 29.2659 28.7773 29.0506 28.7856 28.8353L28.1314 28.4544C26.8064 27.6925 26.1936 26.1356 26.6491 24.6698C26.7236 24.4297 26.8312 24.1895 26.9141 23.9494C26.5994 23.9245 26.293 23.85 25.97 23.85H24.587C22.7486 24.6947 20.7031 25.175 18.55 25.175C16.3969 25.175 14.3597 24.6947 12.513 23.85H11.13C4.98531 23.85 0 28.8353 0 34.98V38.425C0 40.6195 1.78047 42.4 3.975 42.4H33.125C33.9614 42.4 34.7398 42.135 35.3775 41.6961C35.2781 41.3814 35.2119 41.0584 35.2119 40.7189V39.957Z" fill="#7BC145"/>
</g>
<defs>
<clipPath id="clip0_4_2737">
<rect width="53" height="42.4" fill="white"/>
</clipPath>
</defs>
</svg>
